<!DOCTYPE svg PUBLIC "-//W3C//DTD SVG 1.1//EN" "http://www.w3.org/Graphics/SVG/1.1/DTD/svg11.dtd">
<!-- Uploaded to: SVG Repo, www.svgrepo.com, Transformed by: SVG Repo Mixer Tools -->
<svg fill="#00ff9d" xmlns="http://www.w3.org/2000/svg" viewBox="-5.2 -5.2 62.40 62.40" width="800px" height="800px" enable-background="new 0 0 52 52" xml:space="preserve" stroke="#00ff9d" transform="rotate(0)">
<g id="SVGRepo_bgCarrier" stroke-width="0"/>
<g id="SVGRepo_tracerCarrier" stroke-linecap="round" stroke-linejoin="round"/>
<g id="SVGRepo_iconCarrier"> <path d="M48,9.5C48,8.7,47.3,8,46.5,8h-41C4.7,8,4,8.7,4,9.5v3C4,13.3,4.7,14,5.5,14h41c0.8,0,1.5-0.7,1.5-1.5V9.5z"/> <path d="M48,39.5c0-0.8-0.7-1.5-1.5-1.5h-41C4.7,38,4,38.7,4,39.5v3C4,43.3,4.7,44,5.5,44h41c0.8,0,1.5-0.7,1.5-1.5 V39.5z"/> <path d="M34.5,29c0.8,0,1.5-0.7,1.5-1.5v-3c0-0.8-0.7-1.5-1.5-1.5h-17c-0.8,0-1.5,0.7-1.5,1.5v3 c0,0.8,0.7,1.5,1.5,1.5H34.5z"/> </g>
</svg>